<?xml version="1.0" standalone="no"?>
<!DOCTYPE svg PUBLIC "-//W3C//DTD SVG 20010904//EN"
 "http://www.w3.org/TR/2001/REC-SVG-20010904/DTD/svg10.dtd">
<svg version="1.0" xmlns="http://www.w3.org/2000/svg"
 width="2816.000000pt" height="1536.000000pt" viewBox="0 0 2816.000000 1536.000000"
 preserveAspectRatio="xMidYMid meet">

<g transform="translate(0.000000,1536.000000) scale(0.100000,-0.100000)"
fill="#000000" stroke="none">
<path d="M13725 13639 c-633 -47 -1303 -335 -1865 -803 -205 -170 -506 -486
-649 -679 -61 -84 -67 -88 -95 -83 -368 66 -860 43 -1246 -60 -239 -64 -518
-179 -735 -302 -315 -179 -644 -463 -858 -737 -404 -519 -615 -1094 -634
-1726 -11 -382 35 -698 154 -1044 48 -141 180 -417 265 -558 320 -526 838
-977 1388 -1206 185 -76 456 -161 517 -161 l23 0 2 -327 c1 -181 1 -584 -1
-898 l-2 -570 79 150 c159 304 401 666 567 850 l45 50 0 681 0 681 -147 6
c-342 15 -649 95 -948 247 -299 152 -513 323 -731 583 -133 159 -241 330 -324
518 -102 229 -165 457 -191 694 -14 130 -6 383 16 530 119 783 668 1474 1409
1774 326 132 585 179 939 168 103 -2 190 -7 193 -10 3 -2 -7 -52 -20 -110 -59
-247 -81 -478 -73 -766 5 -223 22 -363 68 -568 16 -73 29 -148 30 -165 0 -18
18 53 39 157 48 243 57 281 87 390 171 625 469 1156 903 1609 274 286 467 447
729 609 356 220 734 348 1146 388 198 19 532 1 760 -41 390 -73 814 -279 1155
-564 301 -250 600 -638 804 -1043 20 -40 39 -73 42 -73 4 0 77 23 163 51 296
95 461 127 716 136 641 22 1224 -202 1694 -652 216 -206 391 -465 513 -758
127 -303 180 -559 179 -867 0 -590 -247 -1158 -690 -1589 -413 -402 -931 -624
-1508 -648 l-153 -6 0 -1698 0 -1698 -62 25 c-606 242 -1550 424 -2503 484
-190 12 -816 30 -826 24 -3 -2 -125 -4 -270 -5 -460 -3 -854 -31 -1354 -95
-172 -22 -467 -72 -555 -94 -298 -74 -546 -318 -620 -610 -21 -80 -39 -240
-28 -240 3 0 25 7 49 16 110 39 500 127 797 180 219 38 626 88 932 114 395 32
1171 47 1565 30 562 -25 1131 -87 1565 -170 225 -42 565 -124 685 -165 86 -29
242 -86 272 -100 17 -9 70 -33 116 -54 47 -21 88 -44 92 -51 9 -15 -11 -29
-125 -86 -248 -123 -576 -222 -1007 -303 -564 -108 -1040 -156 -1781 -182
-634 -22 -1368 19 -2038 116 -600 86 -952 169 -1280 303 -173 70 -246 111
-264 147 -26 51 -20 473 9 640 90 532 273 965 595 1410 92 127 126 166 137
159 23 -14 111 -32 544 -114 396 -75 916 -116 1349 -107 519 11 869 63 1353
203 589 170 1142 476 1608 888 183 162 460 451 595 622 348 440 663 997 887
1569 95 241 220 617 274 825 17 63 39 149 50 190 43 160 50 189 75 305 26 123
69 348 104 535 27 145 56 358 74 530 25 249 26 251 13 243 -6 -4 -43 -28 -82
-53 -227 -149 -533 -273 -909 -370 -380 -97 -817 -158 -1541 -215 -721 -57
-839 -67 -1040 -91 -469 -56 -652 -88 -1015 -179 -598 -150 -1103 -392 -1500
-718 -117 -96 -342 -324 -421 -427 -453 -587 -701 -1251 -798 -2135 -11 -99
-23 -243 -26 -320 l-7 -140 34 31 c136 126 168 155 203 185 22 19 47 40 55 48
8 7 57 48 110 90 52 42 101 81 108 88 81 77 741 538 869 607 51 28 52 29 73
110 60 223 165 498 285 741 164 333 229 433 436 670 77 89 131 141 287 280 44
39 71 42 35 2 -34 -36 -137 -205 -207 -339 -140 -266 -235 -547 -291 -858 -13
-74 -34 -250 -30 -250 1 0 115 58 255 128 349 175 743 351 995 444 43 16 84
33 91 39 6 5 24 44 39 86 53 150 182 404 277 546 22 31 36 62 32 69 -4 6 -3 8
3 5 6 -4 29 17 50 46 115 151 300 328 486 465 59 44 76 41 31 -6 -136 -141
-305 -440 -394 -697 -40 -116 -93 -306 -86 -312 5 -6 115 36 443 167 461 186
582 238 954 417 326 157 740 406 966 579 168 129 143 95 -80 -109 -229 -209
-385 -332 -627 -494 -461 -309 -968 -585 -1750 -953 -629 -296 -993 -474
-1215 -595 -33 -18 -125 -68 -205 -110 -331 -176 -727 -421 -1055 -653 -736
-520 -1268 -1046 -1658 -1637 -316 -480 -510 -944 -631 -1505 -47 -221 -74
-587 -51 -689 58 -248 283 -435 765 -639 161 -68 444 -160 645 -211 94 -23
420 -89 620 -125 701 -126 1728 -190 2502 -156 1111 49 1979 183 2633 407 146
50 435 174 533 229 230 130 377 277 444 445 17 41 18 159 23 1847 l5 1804 130
33 c610 156 1142 501 1560 1010 85 104 213 289 282 410 203 352 316 706 369
1155 8 72 8 407 0 490 -46 446 -121 716 -301 1085 -135 276 -322 531 -565 775
-194 195 -350 319 -568 450 -332 201 -649 319 -1032 384 -194 33 -208 34 -415
42 -193 7 -427 -10 -630 -46 -87 -16 -101 -17 -110 -4 -191 280 -290 400 -499
609 -375 373 -755 619 -1237 799 -214 79 -500 145 -747 171 -148 16 -500 18
-687 4z m1481 -6024 c427 -93 966 -109 1297 -39 82 17 95 18 81 4 -14 -14
-224 -92 -359 -133 -426 -129 -894 -158 -1435 -91 -69 9 -129 19 -133 24 -5 4
35 33 90 63 54 31 152 87 218 126 66 39 121 71 122 71 1 0 54 -11 119 -25z
m-1906 -1184 c336 -86 694 -136 1115 -157 154 -7 555 10 704 31 57 8 109 15
115 15 47 -2 -314 -125 -514 -175 -364 -92 -686 -125 -1150 -120 -266 3 -452
19 -727 60 -89 14 -167 25 -172 25 -25 0 -5 20 87 88 146 108 376 271 382 272
3 0 75 -18 160 -39z"/>
</g>
</svg>
